<svg width="236" height="810" viewBox="0 0 236 810" fill="none" xmlns="http://www.w3.org/2000/svg">
<g opacity="0.2" clip-path="url(#clip0_572_1038)">
<path d="M29.75 502.05L-3.25 420.9L-78.25 414.6L29.75 502.05Z" fill="#297EA6" stroke="#297EA6" stroke-linejoin="bevel"/>
<path d="M-78.2502 414.6L34.2498 283.95L-134.2 249.45L-78.2502 414.6Z" fill="#19435D" stroke="#19435D" stroke-linejoin="bevel"/>
<path d="M-113.2 637.05L29.7498 502.05L-78.2502 414.6L-113.2 637.05Z" fill="#246688" stroke="#246688" stroke-linejoin="bevel"/>
<path d="M84.05 420.6L29.75 502.05L106.55 474.9L84.05 420.6Z" fill="#1D4E6B" stroke="#1D4E6B" stroke-linejoin="bevel"/>
<path d="M81.0498 539.55L29.7498 502.05L-113.2 637.05L81.0498 539.55Z" fill="#246688" stroke="#246688" stroke-linejoin="bevel"/>
<path d="M34.25 283.95L-78.25 414.6L-3.25 420.9L34.25 283.95Z" fill="#0C2435" stroke="#0C2435" stroke-linejoin="bevel"/>
<path d="M27.0498 169.95L-15.2502 133.65L-134.2 249.45L27.0498 169.95Z" fill="#081A28" stroke="#081A28" stroke-linejoin="bevel"/>
<path d="M84.05 420.6L34.25 283.95L-3.25 420.9L84.05 420.6Z" fill="#0C2435" stroke="#0C2435" stroke-linejoin="bevel"/>
<path d="M34.2498 283.95L27.0498 169.95L-134.2 249.45L34.2498 283.95Z" fill="#00101C" stroke="#00101C" stroke-linejoin="bevel"/>
<path d="M-15.2502 133.65L166.55 0H-69.7002L-15.2502 133.65Z" fill="#081A28" stroke="#081A28" stroke-linejoin="bevel"/>
<path d="M81.0498 539.55L-113.2 637.05L82.5498 686.85L81.0498 539.55Z" fill="#112E42" stroke="#112E42" stroke-linejoin="bevel"/>
<path d="M29.75 502.05L84.05 420.6L-3.25 420.9L29.75 502.05Z" fill="#205A7A" stroke="#205A7A" stroke-linejoin="bevel"/>
<path d="M34.2498 283.95L236 292.95L27.0498 169.95L34.2498 283.95Z" fill="#0C2435" stroke="#0C2435" stroke-linejoin="bevel"/>
<path d="M82.5498 686.85L-113.2 637.05L-81.2502 703.35L82.5498 686.85Z" fill="#19435D" stroke="#19435D" stroke-linejoin="bevel"/>
<path d="M81.05 539.55L106.55 474.9L29.75 502.05L81.05 539.55Z" fill="#081A28" stroke="#081A28" stroke-linejoin="bevel"/>
<path d="M84.05 420.6L236 292.95L34.25 283.95L84.05 420.6Z" fill="#15384F" stroke="#15384F" stroke-linejoin="bevel"/>
<path d="M16.25 810L82.55 686.85L-81.25 703.35L16.25 810Z" fill="#277297" stroke="#277297" stroke-linejoin="bevel"/>
<path d="M236 405.9L84.0498 420.6L106.55 474.9L236 405.9Z" fill="#297EA6" stroke="#297EA6" stroke-linejoin="bevel"/>
<path d="M16.2498 810L-81.2502 703.35L-105.7 754.35L16.2498 810Z" fill="#246688" stroke="#246688" stroke-linejoin="bevel"/>
<path d="M-176.2 810H16.2498L-105.7 754.35L-176.2 810Z" fill="#112E42" stroke="#112E42" stroke-linejoin="bevel"/>
<path d="M16.25 810H63.05L82.55 686.85L16.25 810Z" fill="#19435D" stroke="#19435D" stroke-linejoin="bevel"/>
<path d="M106.55 474.9L81.0498 539.55L236 568.05L106.55 474.9Z" fill="#00101C" stroke="#00101C" stroke-linejoin="bevel"/>
<path d="M236 405.9L106.55 474.9L236 568.05V405.9Z" fill="#246688" stroke="#246688" stroke-linejoin="bevel"/>
<path d="M236 405.9V401.1L84.0498 420.6L236 405.9Z" fill="#1D4E6B" stroke="#1D4E6B" stroke-linejoin="bevel"/>
<path d="M27.05 169.95L171.05 60.15L-15.25 133.65L27.05 169.95Z" fill="#00101C" stroke="#00101C" stroke-linejoin="bevel"/>
<path d="M236 568.05L81.0498 539.55L82.5498 686.85L236 568.05Z" fill="#15384F" stroke="#15384F" stroke-linejoin="bevel"/>
<path d="M236 401.1V292.95L84.0498 420.6L236 401.1Z" fill="#112E42" stroke="#112E42" stroke-linejoin="bevel"/>
<path d="M236 99.15L171.05 60.15L27.0498 169.95L236 99.15Z" fill="#081A28" stroke="#081A28" stroke-linejoin="bevel"/>
<path d="M236 745.35V568.05L82.5498 686.85L236 745.35Z" fill="#297EA6" stroke="#297EA6" stroke-linejoin="bevel"/>
<path d="M236 0H166.55L171.05 60.15L236 0Z" fill="#00101C" stroke="#00101C" stroke-linejoin="bevel"/>
<path d="M171.05 60.15L166.55 0L-15.25 133.65L171.05 60.15Z" fill="#19435D" stroke="#19435D" stroke-linejoin="bevel"/>
<path d="M236 292.95V99.15L27.0498 169.95L236 292.95Z" fill="#00101C" stroke="#00101C" stroke-linejoin="bevel"/>
<path d="M63.0498 810L236 745.35L82.5498 686.85L63.0498 810Z" fill="#1D4E6B" stroke="#1D4E6B" stroke-linejoin="bevel"/>
<path d="M236 99.15V0L171.05 60.15L236 99.15Z" fill="#277297" stroke="#277297" stroke-linejoin="bevel"/>
<path d="M63.0498 810H236V745.35L63.0498 810Z" fill="#297EA6" stroke="#297EA6" stroke-linejoin="bevel"/>
</g>
<defs>
<clipPath id="clip0_572_1038">
<rect width="236" height="810" fill="white"/>
</clipPath>
</defs>
</svg>
